<svg width="2105" height="2105" viewBox="0 0 2105 2105" fill="none" xmlns="http://www.w3.org/2000/svg">
<g clip-path="url(#clip0_631_2)">
<g filter="url(#filter0_d_631_2)">
<path d="M1052.04 1994.38C1602.77 1994.38 2049.23 1547.93 2049.23 997.192C2049.23 446.458 1602.77 0 1052.04 0C501.306 0 54.8477 446.458 54.8477 997.192C54.8477 1547.93 501.306 1994.38 1052.04 1994.38Z" fill="white"/>
</g>
<path d="M1868.5 996.754C1868.51 1447.25 1503.3 1812.49 1052.75 1812.5C602.247 1812.51 237.017 1447.31 237 996.754C237.011 546.247 602.192 180.991 1052.75 181C1503.25 180.984 1868.51 546.191 1868.5 996.754Z" fill="#3762C1"/>
<path d="M685.577 1000.69C687.547 1002.74 689.56 1004.9 690.441 1007.6C692.328 1013.33 688.259 1019.79 682.724 1022.14C677.168 1024.48 670.731 1023.51 665.112 1021.35C659.45 1019.16 654.356 1015.84 648.862 1013.39C625.379 1002.77 597.199 1008.11 573.359 998.303C567.824 995.985 562.121 992.315 560.485 986.539C559.541 983.174 560.087 979.594 560.674 976.134C562.75 963.575 566.922 948.625 579.167 945.27C584.597 943.782 590.427 945.25 597.513 947.305C604.663 949.379 611.604 952.189 618.167 955.691C635.631 965.064 669.725 984.419 685.577 1000.69Z" fill="white"/>
<path d="M512.294 1093.5C506.507 1089.54 501.203 1084.75 496.59 1079.18C480.026 1059.31 452.747 1036.27 409.008 1021.01C401.754 1018.47 393.976 1015.95 389.006 1010.08C385.379 1005.76 383.764 1000.16 382.464 994.673C374.182 959.884 374.329 922.352 357.534 890.754C346.925 870.878 330.172 854.502 321.743 833.661C309.624 803.657 316.669 769.334 328.411 739.223C340.194 709.074 356.57 680.495 363.594 648.918C368.312 627.699 368.604 605.788 370.66 584.15C372.107 568.907 374.412 553.789 377.557 538.839V538.818C421.631 473.966 474.783 415.782 535.233 366.152C561.631 384.037 591.277 398.693 621.177 390.747C641.284 385.443 660.366 370.01 680.514 375.148C684.645 376.196 688.797 378.355 690.705 382.151C695.254 391.272 686.7 407.143 696.492 410.036C706.01 408.108 716.075 406.221 725.175 409.953C730.438 412.112 734.694 416.348 736.434 421.758C738.993 429.788 734.589 434.988 729.976 439.413C707.835 460.799 677.852 471.702 651.852 488.161C625.832 504.663 601.888 531.501 604.76 562.156C606.836 584.15 622.331 602.559 639.481 616.482C641.096 617.781 642.795 619.081 644.828 619.501C647.743 620.109 650.679 618.725 653.237 617.216C666.823 609.353 677.873 597.234 684.436 582.976C690.914 568.886 693.242 552.614 703.012 540.537C712.721 528.544 728.278 522.8 743.542 520.43C772.645 515.923 805.208 523.344 824.204 545.863C843.179 568.403 842.676 607.213 818.71 624.387C808.289 631.851 795.185 634.597 784.345 641.391C773.484 648.205 764.908 662.38 771.135 673.575C774.617 679.844 782.123 683.787 777.173 694.648C774.805 699.889 770.548 704.062 765.495 706.829C750.399 715.195 734.358 721.759 717.773 726.455C684.205 735.911 643.8 740.755 626.608 771.073C615.223 791.181 617.865 817.642 603.964 836.072C588.049 857.165 553.893 862.952 546.135 888.217C542.97 898.512 545.276 909.71 543.452 920.319C541.647 930.928 532.444 942.146 522.044 939.294C511.372 922.101 502.229 903.125 486.126 890.923C466.984 876.435 433.688 876.14 426.391 903.65C424.567 910.444 424.944 917.635 426.6 924.471C434.819 958.354 467.55 978.042 494.157 999.906C510.659 1013.46 529.508 1038.44 544.604 1060.67C558.988 1081.9 533.45 1108.02 512.294 1093.5Z" fill="white"/>
<path d="M742.541 358.482C739.396 352.696 738.871 344.938 743.087 339.885C745.707 336.74 749.67 335.084 753.549 333.699C765.228 329.528 777.41 326.718 789.738 325.313C804.919 323.573 819.826 330.827 827.94 343.764C836.202 356.952 843.435 370.687 848.405 385.426C850.376 391.275 852.011 397.335 851.991 403.499C851.991 421.783 837.817 438.893 841.611 456.799C842.597 461.559 844.862 466.172 844.568 471.036C844.128 478.458 837.502 484.392 830.311 486.342C823.097 488.333 815.486 487.159 808.148 485.796C797.727 483.805 787.391 481.351 777.179 478.458C774.726 477.788 772.021 476.823 770.93 474.558C769.925 472.545 770.553 470.113 771.224 467.975C776.403 451.159 783.26 434.847 791.71 419.393C793.931 415.347 796.302 410.775 795.002 406.33C793.995 403.059 791.206 400.712 788.522 398.572C777.724 389.913 766.884 381.296 756.086 372.637C750.969 368.526 745.686 364.27 742.541 358.482Z" fill="white"/>
<path d="M985.757 1314.9C982.889 1323.17 977.165 1330.09 972.679 1337.59C958.546 1361.25 956.911 1389.97 951.963 1417.1C947.015 1444.21 936.426 1473.21 912.23 1486.4C907.512 1488.96 902.354 1490.88 898.475 1494.57C893.421 1499.4 891.347 1506.46 889.124 1513.1C882.121 1533.84 871.7 1553.45 858.364 1570.83C849.768 1582.06 839.913 1592.46 833.12 1604.88C826.306 1617.28 822.866 1632.5 828.13 1645.64C830.897 1652.52 835.803 1658.31 840.647 1663.95C848.321 1672.91 856.016 1681.88 863.711 1690.84C867.653 1695.47 867.757 1702.4 863.628 1706.82C858.448 1712.4 849.747 1715.41 841.905 1714.37C829.996 1712.8 820.037 1704.86 810.873 1697.1C778.919 1670.1 747.553 1640.85 728.158 1603.78C712.789 1574.39 705.681 1541.53 695.952 1509.8C686.224 1478.09 672.95 1446.1 648.461 1423.72C626.927 1404.06 598.034 1393.09 578.807 1371.16C562.034 1352.07 554.485 1326.79 547.378 1302.39C542.953 1287.1 538.613 1270.21 545.343 1255.79C550.271 1245.23 560.944 1236.46 560.272 1224.83C559.621 1213.74 548.741 1205.75 546.539 1194.86C544.547 1185.03 550.082 1175.26 556.498 1167.55C565.388 1156.83 586.376 1144.67 604.01 1136.41C614.913 1131.3 627.012 1129.34 638.963 1130.73C692.303 1136.96 744.156 1156.56 787.852 1187.84C792.108 1190.89 796.449 1194.22 798.734 1198.92C802.067 1205.77 800.663 1214.72 805.737 1220.38C808.231 1223.18 811.859 1224.62 815.36 1225.96C867.863 1246.2 920.386 1266.4 972.909 1286.65C975.76 1287.73 978.654 1288.86 981.044 1290.77C987.904 1296.23 988.659 1306.66 985.757 1314.9Z" fill="white"/>
<path d="M1097.19 319.935C1093.29 343.063 1064.66 352.918 1053.3 373.444C1047.49 383.95 1045.92 397.64 1036.02 404.413C1027.89 409.99 1016.29 409.068 1008.77 415.442C1002.62 420.663 1000.9 429.238 999.522 437.165C997.84 446.956 996.144 456.748 994.461 466.539C992.461 478.051 988.937 491.533 977.966 495.643C967.756 499.501 956.936 492.959 947.271 487.863C934.396 481.027 920.307 476.29 908.649 467.546C896.99 458.824 887.89 444.44 890.847 430.162C892.462 422.425 897.473 415.149 896.361 407.307C895.46 401.08 890.826 395.942 889.526 389.799C887.388 379.525 894.81 370.09 899.758 360.864C905.357 350.464 908.124 338.597 907.705 326.814C907.642 324.695 907.432 322.494 906.404 320.628C904.497 317.21 900.346 315.826 896.719 314.296C886.277 309.787 876.987 299.451 878.749 288.213C880.636 276.156 893.447 269.51 904.77 265.022C931.189 254.623 958.215 245.838 985.678 238.709C998.012 235.522 1011.05 238.332 1021.34 245.838C1030.24 252.316 1039.5 258.271 1049.11 263.639C1060.66 270.096 1072.85 275.821 1082.59 284.774C1092.3 293.769 1099.39 306.894 1097.19 319.935Z" fill="white"/>
<path d="M1150.72 420.022C1142.2 426.732 1131.11 430.066 1120.28 429.165C1109.48 428.284 1099.08 423.126 1091.78 415.095C1088.44 411.385 1085.67 406.876 1085.37 401.886C1085.09 396.916 1087.93 391.529 1092.72 390.165C1096.31 389.117 1100.13 390.417 1103.84 390.249C1111.43 389.956 1117.32 383.98 1123.09 379.032C1125.14 377.271 1127.58 375.95 1130.39 375.09C1143.34 371.148 1157.61 379.262 1160.38 392.514C1163.76 408.722 1155.23 416.48 1150.72 420.022Z" fill="white"/>
<path d="M1481.84 302.83C1472.52 312.685 1474.86 324.448 1479.11 331.493C1482.01 336.295 1486.94 339.397 1491.09 343.131C1495.24 346.884 1498.93 352.167 1497.86 357.681C1497.14 361.372 1494.43 364.306 1491.84 367.033C1485.41 373.805 1478.97 380.577 1472.52 387.371C1467.2 392.948 1461.82 398.588 1455.32 402.676C1449.7 406.22 1442.83 408.548 1436.43 406.766C1430.06 404.942 1425 397.792 1427.29 391.564C1428.67 387.77 1432.26 385.253 1434.45 381.836C1440.67 372.358 1434.37 359.275 1425.49 352.167C1415.24 343.968 1402.18 340.257 1389.46 336.924C1376.51 333.527 1363.34 330.34 1349.93 330.109C1336.52 329.879 1322.71 332.836 1311.86 340.739C1306.24 344.849 1301.6 350.153 1297.38 355.69C1281.48 376.636 1271.11 401.754 1267.58 427.817C1266.55 435.302 1266.11 443.018 1268.05 450.357C1271.45 463.482 1281.9 473.442 1291.88 482.688C1293.1 483.799 1294.36 484.952 1295.88 485.519C1301.1 487.49 1306.13 482.436 1311.46 480.842C1315.62 479.585 1320.08 480.466 1324.31 481.346C1328.3 482.185 1332.43 483.108 1335.6 485.645C1339.88 489.104 1341.55 494.997 1341.21 500.468V500.553C1340.99 504.306 1337.88 507.262 1334.11 507.618C1320.69 508.834 1311.17 516.865 1304.97 524.854C1297.27 534.75 1293.2 547.624 1283.35 555.34C1271.3 564.733 1252.98 564.461 1242.91 575.93C1233.44 586.707 1236.75 605.997 1249.31 612.98C1252.16 614.593 1255.47 615.684 1257.62 618.201C1261.62 622.959 1259.2 630.822 1254.16 634.513C1249.15 638.181 1242.52 638.727 1236.29 638.811C1230.05 638.894 1223.57 638.665 1217.86 641.138C1209.71 644.682 1204.59 653.3 1203.17 662.085C1199.39 685.547 1220.27 708.192 1243.8 711.567C1267.3 714.964 1290.95 702.657 1306.93 685.044C1314.59 676.615 1320.99 666.845 1330.21 660.113C1339.41 653.383 1352.77 650.469 1362.04 657.115C1366.41 660.282 1369.31 665.146 1373.49 668.605C1377.63 672.045 1383.24 673.952 1388.52 672.883C1393.78 671.813 1398.46 667.368 1398.96 662.021C1399.23 659.213 1398.43 656.36 1398.54 653.509C1398.86 646.003 1405.9 639.965 1413.36 638.936C1420.82 637.91 1428.31 640.95 1434.52 645.186C1455.6 659.674 1463.88 686.26 1478.03 707.563C1478.85 708.8 1479.72 710.058 1480.94 710.876C1485.66 713.957 1491.7 708.905 1493.73 703.684C1495.77 698.443 1496.38 692.194 1500.71 688.63C1507.03 683.388 1517 687.685 1522 694.186C1526.97 700.728 1529.2 709.03 1534.3 715.468C1540.72 723.603 1551.1 727.859 1561.4 728.865C1571.7 729.83 1582.06 727.88 1592.15 725.532C1593.83 725.133 1595.8 724.798 1597.06 725.972C1597.86 726.727 1598.08 727.88 1598.25 728.95C1600.37 741.844 1599.98 755.137 1597.23 767.927C1594.66 779.795 1582.24 786.735 1570.66 783.044C1549.35 776.272 1533.38 765.097 1515.68 760.045C1511.32 758.807 1506.75 757.549 1502.35 758.618C1496.69 760.023 1492.71 764.846 1488.4 768.766C1473.63 782.291 1450.82 786.232 1432.33 778.474C1419.17 772.897 1408.69 761.554 1403.55 748.239C1399.9 738.742 1390.34 732.87 1380.23 734.255C1342.25 739.391 1304.27 744.57 1266.23 749.728C1247.7 752.244 1227.49 755.62 1215.04 769.585C1204.53 781.367 1201.99 798.036 1195.83 812.588C1186.01 835.589 1166.83 853.433 1155.9 875.93C1141.47 905.64 1142.8 940.362 1146.28 973.24C1150.52 1013.35 1160.82 1058.28 1195.54 1078.81C1222.27 1094.6 1255.88 1091.05 1286.34 1085.08C1316.83 1079.1 1348.58 1071.26 1378.39 1079.92C1383.13 1081.3 1387.87 1083.14 1391.52 1086.44C1407.97 1101.23 1392.17 1129.05 1398.46 1150.27C1401.98 1162.18 1412.21 1170.71 1418.72 1181.3C1432.57 1203.73 1428.44 1232.77 1420.32 1257.85C1412.18 1282.95 1400.41 1307.61 1400.22 1333.96C1399.97 1370.18 1421.52 1406.09 1424.4 1440.72C1425.6 1455.36 1438.67 1465.93 1453.27 1464.4C1494.94 1460.08 1534.98 1436.85 1556.97 1400.98C1564.5 1388.71 1570.07 1375.21 1578.74 1363.71C1588.99 1350.13 1603.04 1339.98 1615.67 1328.59C1632.7 1313.25 1648.01 1294.07 1651.11 1271.33C1654.61 1245.56 1641.84 1220.02 1643.04 1194.04C1644.46 1163.19 1664.89 1137.06 1682.67 1111.79C1707.46 1076.59 1728.67 1038.91 1745.93 999.47C1747.05 996.913 1748.17 994.117 1747.52 991.375C1745.53 983.32 1733.69 986.076 1725.57 987.785C1701.77 992.779 1680.99 971.311 1668.52 950.448C1651.89 922.646 1640.08 891.929 1633.85 860.141C1670.97 869.346 1704.45 892.159 1727 923.002C1731.37 929.019 1739.49 930.822 1745.93 927.133C1752.09 923.589 1758.3 920.151 1764.58 916.859C1770.11 913.944 1773.18 907.759 1772.01 901.657C1765.93 869.075 1750.79 838.189 1728.55 813.573C1742.83 815.041 1757.34 816.53 1770.62 821.918C1783.94 827.286 1796.14 837.14 1800.95 850.644C1803.33 857.333 1803.82 864.566 1806.06 871.296C1810.34 884.002 1807.89 896.52 1816.06 907.108C1841.76 940.3 1781.34 1000.08 1868.49 999.496C1868.5 998.569 1868.5 997.668 1868.5 996.74C1868.5 703.621 1713.93 446.645 1481.84 302.83ZM1694.05 711.273C1690.63 719.912 1679.69 725.93 1671.55 721.423C1667.78 719.325 1665.29 715.468 1663.5 711.525C1655.1 693.011 1658.39 669.213 1644.71 654.139C1634.91 643.319 1618.72 640.027 1609.13 629.04C1600.05 618.683 1599.11 602.013 1607.08 590.775C1615.09 579.557 1631.35 575.028 1643.91 580.669C1645.65 581.465 1647.34 582.43 1648.89 583.52C1656.58 588.909 1665.29 592.746 1674.47 594.696C1678.75 595.597 1683.07 597.736 1686.13 602.243C1690.22 608.22 1690.87 615.831 1690.59 623.064C1690.26 632.017 1689.23 640.95 1687.57 649.735C1686.31 656.36 1684.66 663.154 1685.9 669.8C1686.84 674.853 1689.36 679.445 1691.43 684.163C1695.19 692.697 1697.47 702.593 1694.05 711.273Z" fill="white"/>
</g>
<defs>
<filter id="filter0_d_631_2" x="-0.000743866" y="-9.91821e-05" width="2104.08" height="2104.08" filterUnits="userSpaceOnUse" color-interpolation-filters="sRGB">
<feFlood flood-opacity="0" result="BackgroundImageFix"/>
<feColorMatrix in="SourceAlpha" type="matrix" values="0 0 0 0 0 0 0 0 0 0 0 0 0 0 0 0 0 0 127 0" result="hardAlpha"/>
<feOffset dy="54.8483"/>
<feGaussianBlur stdDeviation="27.4242"/>
<feComposite in2="hardAlpha" operator="out"/>
<feColorMatrix type="matrix" values="0 0 0 0 0 0 0 0 0 0 0 0 0 0 0 0 0 0 0.04 0"/>
<feBlend mode="normal" in2="BackgroundImageFix" result="effect1_dropShadow_631_2"/>
<feBlend mode="normal" in="SourceGraphic" in2="effect1_dropShadow_631_2" result="shape"/>
</filter>
<clipPath id="clip0_631_2">
<rect width="2105" height="2105" fill="white"/>
</clipPath>
</defs>
</svg>
